name C:/MyDriveSym/Projects/mobilecap/Data\Session20210816_0002\mocap\ForceDataProcessed\walkingTS4_forces.mot
datacolumns 19
datarows 14
range 0.00000000 0.00650000
endheader 
time	R_ground_force_vx	R_ground_force_vy	R_ground_force_vz	R_ground_force_px	R_ground_force_py	R_ground_force_pz	R_ground_torque_x	R_ground_torque_y	R_ground_torque_z	L_ground_force_vx	L_ground_force_vy	L_ground_force_vz	L_ground_force_px	L_ground_force_py	L_ground_force_pz	L_ground_torque_x	L_ground_torque_y	L_ground_torque_z	
          0.00000000	        -46.10361700	        348.74877300	         12.41957500	          0.14196500	          0.00600000	         -0.22770900	          0.00000000	         -0.27216200	          0.00000000	          0.00000000	          0.00000000	          0.00000000	          0.75506100	          0.00000000	         -0.31595700	          0.00000000	          0.00000000	          0.00000000	
          0.00050000	        -46.23088700	        349.58082500	         12.23398200	          0.14196500	          0.00600000	         -0.22770900	          0.00000000	         -0.28279600	          0.00000000	          0.00000000	          0.00000000	          0.00000000	          0.75506100	          0.00000000	         -0.31595700	          0.00000000	          0.00000000	          0.00000000	
          0.00100000	        -46.35873700	        350.41921500	         12.04785100	          0.14196500	          0.00600000	         -0.22770900	          0.00000000	         -0.29337200	          0.00000000	          0.00000000	          0.00000000	          0.00000000	          0.75506100	          0.00000000	         -0.31595700	          0.00000000	          0.00000000	          0.00000000	
          0.00150000	        -46.48715800	        351.26392400	         11.86120300	          0.14196500	          0.00600000	         -0.22770900	          0.00000000	         -0.30388900	          0.00000000	          0.00000000	          0.00000000	          0.00000000	          0.75506100	          0.00000000	         -0.31595700	          0.00000000	          0.00000000	          0.00000000	
          0.00200000	        -46.61613800	        352.11493100	         11.67405800	          0.14213600	          0.00600000	         -0.22766300	          0.00000000	         -0.31434400	          0.00000000	          0.00000000	          0.00000000	          0.00000000	          0.75506100	          0.00000000	         -0.31595700	          0.00000000	          0.00000000	          0.00000000	
          0.00250000	        -46.74566900	        352.97221400	         11.48643600	          0.14230700	          0.00600000	         -0.22761600	          0.00000000	         -0.32473600	          0.00000000	          0.00000000	          0.00000000	          0.00000000	          0.75506100	          0.00000000	         -0.31595700	          0.00000000	          0.00000000	          0.00000000	
          0.00300000	        -46.87573900	        353.83575100	         11.29835800	          0.14247900	          0.00600000	         -0.22757000	          0.00000000	         -0.33506100	          0.00000000	          0.00000000	          0.00000000	          0.00000000	          0.75506100	          0.00000000	         -0.31595700	          0.00000000	          0.00000000	          0.00000000	
          0.00350000	        -47.00633700	        354.70551700	         11.10984600	          0.14265300	          0.00600000	         -0.22752400	          0.00000000	         -0.34531700	          0.00000000	          0.00000000	          0.00000000	          0.00000000	          0.75506100	          0.00000000	         -0.31595700	          0.00000000	          0.00000000	          0.00000000	
          0.00400000	        -47.13745200	        355.58148800	         10.92091900	          0.14282600	          0.00600000	         -0.22747800	          0.00000000	         -0.35550200	          0.00000000	          0.00000000	          0.00000000	          0.00000000	          0.75506100	          0.00000000	         -0.31595700	          0.00000000	          0.00000000	          0.00000000	
          0.00450000	        -47.26907200	        356.46363600	         10.73160100	          0.14300100	          0.00600000	         -0.22743100	          0.00000000	         -0.36561400	          0.00000000	          0.00000000	          0.00000000	          0.00000000	          0.75506100	          0.00000000	         -0.31595700	          0.00000000	          0.00000000	          0.00000000	
          0.00500000	        -47.40118600	        357.35193400	         10.54191300	          0.14317700	          0.00600000	         -0.22738500	          0.00000000	         -0.37565100	          0.00000000	          0.00000000	          0.00000000	          0.00000000	          0.75506100	          0.00000000	         -0.31595700	          0.00000000	          0.00000000	          0.00000000	
          0.00550000	        -47.53378100	        358.24635300	         10.35187700	          0.14335300	          0.00600000	         -0.22733800	          0.00000000	         -0.38560900	          0.00000000	          0.00000000	          0.00000000	          0.00000000	          0.75506100	          0.00000000	         -0.31595700	          0.00000000	          0.00000000	          0.00000000	
          0.00600000	        -47.66684600	        359.14686300	         10.16151600	          0.14353000	          0.00600000	         -0.22729200	          0.00000000	         -0.39548800	          0.00000000	          0.00000000	          0.00000000	          0.00000000	          0.75506100	          0.00000000	         -0.31595700	          0.00000000	          0.00000000	          0.00000000	
          0.00650000	        -47.80036800	        360.05343300	          9.97085300	          0.14370700	          0.00600000	         -0.22724500	          0.00000000	         -0.40528400	          0.00000000	          0.00000000	          0.00000000	          0.00000000	          0.75506100	          0.00000000	         -0.31595700	          0.00000000	          0.00000000	          0.00000000	
